<svg width="1024" height="1024" viewBox="0 0 1024 1024" fill="none" xmlns="http://www.w3.org/2000/svg">
  <defs>
    <linearGradient id="bg" x1="176" y1="120" x2="864" y2="900" gradientUnits="userSpaceOnUse">
      <stop stop-color="#111827"/>
      <stop offset="0.55" stop-color="#0B1324"/>
      <stop offset="1" stop-color="#09101C"/>
    </linearGradient>
    <radialGradient id="glowA" cx="0" cy="0" r="1" gradientUnits="userSpaceOnUse" gradientTransform="translate(320 286) rotate(42) scale(420 330)">
      <stop stop-color="#2DD4BF" stop-opacity="0.28"/>
      <stop offset="1" stop-color="#2DD4BF" stop-opacity="0"/>
    </radialGradient>
    <radialGradient id="glowB" cx="0" cy="0" r="1" gradientUnits="userSpaceOnUse" gradientTransform="translate(720 748) rotate(135) scale(360 300)">
      <stop stop-color="#60A5FA" stop-opacity="0.18"/>
      <stop offset="1" stop-color="#60A5FA" stop-opacity="0"/>
    </radialGradient>
    <linearGradient id="stroke" x1="258" y1="270" x2="768" y2="774" gradientUnits="userSpaceOnUse">
      <stop stop-color="#B8F3FF"/>
      <stop offset="0.48" stop-color="#67E8F9"/>
      <stop offset="1" stop-color="#2DD4BF"/>
    </linearGradient>
  </defs>

  <rect x="76" y="76" width="872" height="872" rx="192" fill="url(#bg)"/>
  <rect x="76" y="76" width="872" height="872" rx="192" fill="url(#glowA)"/>
  <rect x="76" y="76" width="872" height="872" rx="192" fill="url(#glowB)"/>
  <rect x="150" y="150" width="724" height="724" rx="154" stroke="white" stroke-opacity="0.08" stroke-width="2"/>

  <g transform="translate(512 512) scale(0.78) translate(-512 -512)">
    <path d="M324 700C288 642 270 579 270 516C270 396 338 292 438 232L486 298L536 232L590 300" stroke="url(#stroke)" stroke-width="34" stroke-linecap="round" stroke-linejoin="round"/>
    <path d="M388 720C472 770 590 778 694 738C746 718 778 690 784 650C792 595 760 550 706 528" stroke="url(#stroke)" stroke-width="30" stroke-linecap="round"/>

    <path d="M436 644 504 380 572 644" stroke="url(#stroke)" stroke-width="34" stroke-linecap="round" stroke-linejoin="round"/>
    <path d="M458 560H548" stroke="url(#stroke)" stroke-width="30" stroke-linecap="round"/>
    <path d="M642 382V642" stroke="url(#stroke)" stroke-width="34" stroke-linecap="round"/>
    <circle cx="642" cy="322" r="18" fill="url(#stroke)"/>

    <circle cx="418" cy="410" r="18" fill="url(#stroke)"/>
    <path d="M370 486C406 540 470 576 542 576C606 576 660 548 694 502" stroke="url(#stroke)" stroke-width="28" stroke-linecap="round"/>
  </g>
</svg>
